<?xml version="1.0" encoding="UTF-8" standalone="no"?>
<svg
   version="1.0"
   width="511.53329pt"
   height="478.37292pt"
   viewBox="0 0 511.5333 478.37292"
   preserveAspectRatio="xMidYMid"
   id="svg13"
   sodipodi:docname="favicon.svg"
   inkscape:version="1.4.2 (ebf0e940, 2025-05-08)"
   xmlns:inkscape="http://www.inkscape.org/namespaces/inkscape"
   xmlns:sodipodi="http://sodipodi.sourceforge.net/DTD/sodipodi-0.dtd"
   xmlns="http://www.w3.org/2000/svg"
   xmlns:svg="http://www.w3.org/2000/svg">
  <defs
     id="defs1" />
  <sodipodi:namedview
     id="namedview13"
     pagecolor="#000000"
     bordercolor="#000000"
     borderopacity="0.25"
     inkscape:showpageshadow="2"
     inkscape:pageopacity="0.0"
     inkscape:pagecheckerboard="true"
     inkscape:deskcolor="#d1d1d1"
     inkscape:document-units="pt"
     showgrid="false"
     inkscape:zoom="0.80433428"
     inkscape:cx="269.78833"
     inkscape:cy="312.68094"
     inkscape:window-width="1232"
     inkscape:window-height="768"
     inkscape:window-x="88"
     inkscape:window-y="67"
     inkscape:window-maximized="0"
     inkscape:current-layer="svg13">
    <inkscape:grid
       id="grid13"
       units="pt"
       originx="-0.027118951"
       originy="-0.032364"
       spacingx="1"
       spacingy="1"
       empcolor="#0099e5"
       empopacity="0.30196078"
       color="#0099e5"
       opacity="0.14901961"
       empspacing="5"
       enabled="true"
       visible="false" />
  </sodipodi:namedview>
  <metadata
     id="metadata1" />
  <g
     transform="matrix(0.1,0,0,-0.1,-100.41521,534.55)"
     stroke="none"
     id="g13">
    <path
       fill="#ffffff"
       d="M 3934,5030 C 3565,5005 3162,4891 2850,4723 2317,4436 1920,3931 1771,3347 1656,2899 1625,2286 1696,1840 c 46,-296 137,-583 263,-833 80,-159 182,-326 248,-406 l 28,-33 265,-5 c 502,-11 868,51 1295,219 108,42 145,72 145,117 0,15 -29,88 -64,162 -199,417 -310,874 -323,1325 -10,365 34,616 152,859 136,281 390,465 700,506 112,14 354,7 452,-15 401,-88 686,-347 864,-787 70,-172 120,-218 224,-206 106,11 148,73 164,241 67,678 -188,1276 -739,1738 -117,98 -481,224 -800,277 -217,36 -416,45 -636,31 z"
       id="path1"
       style="display:inline" />
    <g
       clip-path="url(#topClip)"
       id="g6"
       style="display:inline">
      <path
         fill="#ffffff"
         transform="translate(200)"
         d="M 3041.5436,5089.7799 C 2627.1892,4988.6322 1760.811,4534.1953 1453.1935,3590.2544 c -90.4847,-157.0509 -238.215,-1023.6735 -140.6612,-1774.0146 33.5499,-258.0509 110.3019,-588.1176 205.1315,-773.0467 70.025,-136.55751 146.8688,-408.11284 154.8961,-411.68711 1.983,-0.88297 17.1624,-3.46156 115.4615,-18.42178 65.6307,-9.98839 222.9377,-36.42222 264.3684,-36.96856 38.3519,-0.50574 -94.0157,107.87914 -128.1106,163.18223 -42.131,72.11342 -101.1774,149.20254 -143.5648,230.46103 -84.6941,162.36209 -153.8425,361.10229 -199.8279,537.71289 -84.8799,534.8583 -88.7637,819.587 -93.2232,908.1493 42.4939,477 128.0354,1028.945 200.168,1217.0054 138.7472,264.5387 956.7714,1239.0795 1825.7418,1361.4916 203.1158,52.3177 360.1623,39.3024 564.6862,36.8867 90.3878,-1.0676 377.006,-39.5036 628.602,-112.3296 259.9008,-75.2299 454.8964,-216.166 463.0718,-204.7761 3.7058,5.1629 14.3816,1.1565 -12.5731,25.4491 -61.1108,55.0751 -260.4945,190.7146 -423.0571,282.8013 -65.1239,36.8906 -317.6175,151.2159 -472.7545,189.9406 -44.107,12.3639 -685.4135,55.8671 -1220.0048,-122.3102 z"
         id="path3"
         sodipodi:nodetypes="ccssssscsccccssssscc"
         style="display:inline;opacity:1;stroke:#000000;stroke-width:20;stroke-linecap:round;stroke-linejoin:round;stroke-dasharray:none;stroke-opacity:1" />
    </g>
    <path
       fill="#000000"
       d="m 3515,5344 c -255,-25 -415,-57 -615,-124 -176.5178,-58.195 -343.7667,-134.5129 -500.0731,-227.1613 C 1828.3528,4654.0466 1403.0998,4096.8861 1206,3409 1093,3012 1033,2668 1010,2284 c -32,-530 69,-1072 262,-1411 40,-70 43,-72 122,-109 105,-48 226,-89 351,-120 96.6492,-23.43011 227.3297,-32.48289 226.3417,-32.17431 -1.0462,0.32678 -1.2273,0.85661 -1.5468,1.14501 C 1969.34,613.38136 1945,658 1914,706 c -131,208 -259,511 -328,776 -83,316 -110,539 -110,898 1,477 74,947 198,1263 296,757 897,1274 1732,1487 264,68 545.062,79.8268 754.0784,76.0447 172.0745,-12.9657 296.1087,-35.5921 543.943,-125.594 193.6152,-70.3119 578.4186,-319.0975 588.1022,-297.5365 48.4925,24.2505 -478.2919,337.6079 -845.1236,445.0858 -240,77 -444,111 -707,116 -102,2 -203,2 -225,0 z"
       id="path7"
       sodipodi:nodetypes="ccscccccssccccccscccc"
       style="display:inline" />
    <path
       fill="#000000"
       d="M 3934,5030 C 3565,5005 3162,4891 2850,4723 2317,4436 1920,3931 1771,3347 1656,2899 1625,2286 1696,1840 c 46,-296 137,-583 263,-833 80,-159 182,-326 248,-406 L 2240.311,566.55154 2500,563 c 502,-11 868,51 1295,219 108,42 145,72 145,117 0,15 -29,88 -64,162 -199,417 -310,874 -323,1325 -10,365 34,616 152,859 136,281 390,465 700,506 112,14 354,7 452,-15 401,-88 686,-347 864,-787 70,-172 120,-218 224,-206 106,11 148,73 164,241 67,678 -180.4487,1291.1773 -731.4487,1753.1773 C 5217.4532,4843.5024 4889,4946 4570,4999 c -217,36 -416,45 -636,31 z m 479,-213 c 80,-36 168,-123 201,-197 42,-93 51,-165 32,-256 -54,-268 -339,-408 -585,-288 -240,118 -298,448 -115,645 203.9912,215.0776 462.0869,98.2518 467,96 z m 1216,-546 c 50.9358,-111.1326 52.4234,-366.3886 -177,-478 -87.7861,-43.893 -226.9696,-37.1571 -304,-1 -116,54 -188,149 -210,275 -10,60 -9,80 5,139 84.2252,336.9009 533.2534,385.4683 686,65 z m -2454,119 c 138,-22 280,-128 339,-254 130,-274 -40,-595 -344,-646 -167,-28 -349,51 -443,192 -158,238 -67,560 190,674 89,40 163,50 258,34 z M 2702,3289 c 134,-28 282,-139 342,-256 172,-341 -65,-735 -444,-735 -280,0 -499,218 -500,497 0,142 47,254 149,356 124,123 287,173 453,138 z m 157,-1284 c 195,-46 350,-194 406,-387 19,-68 22,-203 4,-273 -62,-251 -278,-420 -534,-418 -156,1 -269,48 -381,158 -176,173 -214,425 -98,646 68,130 230,251 369,277 76,15 163,13 234,-3 z"
       id="path8"
       sodipodi:nodetypes="cscccccccscccccccccccccccccccccccccccccccsccccccccccc"
       style="display:inline" />
    <path
       fill="#000000"
       d="m 4155,4651 c -157,-72 -183,-284 -47,-388 117,-89 291,-45 346,89 9,21 16,64 16,96 0,158 -171,269 -315,203 z"
       id="path9"
       style="display:inline;fill:#ffffff;fill-opacity:1" />
    <path
       fill="#000000"
       d="m 5246,4298 c -106,-28 -162,-164 -108,-264 19,-36 80,-83 117,-90 176,-33 297,173 177,299 -50,53 -117,73 -186,55 z"
       id="path10"
       style="fill:#ffffff;fill-opacity:1" />
    <path
       fill="#000000"
       d="m 2983,4185 c -205,-103 -203,-390 2,-490 91.0472,-45.5236 226.1086,-32.1876 313,53 102,103 102,281 0,384 -95.8992,95.8992 -240.5455,91.0545 -315,53 z"
       id="path11"
       sodipodi:nodetypes="ccccc"
       style="fill:#ffffff;fill-opacity:1" />
    <path
       fill="#000000"
       d="m 2527,3110 c -92,-24 -178,-96 -219,-185 -35,-76 -33,-191 5,-267 30,-62 83,-115 149,-150 63.1909,-33.3507 212.8182,-33.346 276,0 66,35 119,88 149,150 37,76 39,191 5,268 -28,63 -102,136 -164,164 -54,24 -148,33 -201,20 z"
       id="path12"
       sodipodi:nodetypes="ccccccccc"
       style="fill:#ffffff;fill-opacity:1" />
    <path
       fill="#000000"
       d="m 2664,1830 c -109,-23 -207,-103 -257,-208 -68.729,-144.8218 -15.1258,-272.3677 -5,-294 35,-76 107,-151 177,-185 87.2947,-43.6473 236.0995,-37.9123 313,-1 73,34 142,103 176,176 15.4973,33.0159 62.2865,175.1509 -6,314 -73,148 -241,232 -398,198 z"
       id="path13"
       sodipodi:nodetypes="cccccccc"
       style="fill:#ffffff;fill-opacity:1" />
  </g>
</svg>
